<?xml version="1.0" encoding="UTF-8" standalone="no"?>
<svg
   xmlns:dc="http://purl.org/dc/elements/1.1/"
   xmlns:cc="http://creativecommons.org/ns#"
   xmlns:rdf="http://www.w3.org/1999/02/22-rdf-syntax-ns#"
   xmlns:svg="http://www.w3.org/2000/svg"
   xmlns="http://www.w3.org/2000/svg"
   xmlns:sodipodi="http://sodipodi.sourceforge.net/DTD/sodipodi-0.dtd"
   xmlns:inkscape="http://www.inkscape.org/namespaces/inkscape"
   sodipodi:docname="Wolf_layer.svg"
   inkscape:version="0.92.1 r15371"
   id="svg8"
   version="1.1"
   viewBox="0 0 200.68183 284.63641"
   height="284.63641mm"
   width="200.68182mm">
  <defs
     id="defs2" />
  <sodipodi:namedview
     inkscape:document-rotation="0"
     inkscape:window-maximized="0"
     inkscape:window-y="0"
     inkscape:window-x="482"
     inkscape:window-height="1008"
     inkscape:window-width="1218"
     fit-margin-bottom="0"
     fit-margin-right="0"
     fit-margin-left="0"
     fit-margin-top="0"
     inkscape:measure-end="1971.82,-101.015"
     inkscape:measure-start="-54.5482,1137.43"
     showgrid="false"
     inkscape:current-layer="layer1"
     inkscape:document-units="mm"
     inkscape:cy="512.5652"
     inkscape:cx="200.11283"
     inkscape:zoom="0.7"
     inkscape:pageshadow="2"
     inkscape:pageopacity="0.0"
     borderopacity="1.0"
     bordercolor="#666666"
     pagecolor="#ffffff"
     id="base" />
  <metadata
     id="metadata5">
    <rdf:RDF>
      <cc:Work
         rdf:about="">
        <dc:format>image/svg+xml</dc:format>
        <dc:type
           rdf:resource="http://purl.org/dc/dcmitype/StillImage" />
        <dc:title></dc:title>
      </cc:Work>
    </rdf:RDF>
  </metadata>
  <g
     transform="translate(-128.78827,28.858)"
     id="layer1"
     inkscape:groupmode="layer"
     inkscape:label="Layer 1">
    <path
       id="path7007"
       d="m 249.83315,22.766818 c 0,-0.09079 0.91282,-1.59163 2.02849,-3.335185 1.11568,-1.743555 2.53731,-4.087374 3.15919,-5.208486 0.63117,-1.137811 2.25947,-3.233466 3.68556,-4.7433742 1.40515,-1.4877446 3.0058,-3.2386189 3.557,-3.8908329 1.18904,-1.4069678 10.96426,-11.6763378 15.52074,-16.3053489 1.83939,-1.868666 2.93705,-2.818033 2.57079,-2.223457 -0.35156,0.570687 -1.36927,2.171576 -2.26156,3.5575306 -0.8923,1.3859547 -2.50063,3.987399 -3.57405,5.7809875 -1.07345,1.7935884 -3.84297,6.129329 -6.15452,9.6349792 -2.31153,3.5056501 -4.76003,7.3334347 -5.44111,8.5061867 -1.02867,1.771303 -4.00692,6.445872 -4.38683,6.885461 -0.11088,0.128294 -7.26713,1.417407 -8.18489,1.474404 -0.28534,0.01773 -0.51881,-0.04207 -0.51881,-0.132859 z"
       style="fill:#b3b3b3;stroke:#0000ff;stroke-width:0.2964609"
       inkscape:connector-curvature="0" />
    <path
       style="fill:#ff0000;stroke:#0000ff;stroke-width:0.29646087"
       d="m 232.03302,30.767687 c 1.18248,1.145339 6.89858,5.787906 7.12721,5.788795 0.0815,2.75e-4 0.96856,-1.514115 1.97094,-3.365685 1.632,-3.014597 4.91722,-8.572474 10.83861,-18.33635 l 1.98851,-3.27887 -2.28513,-1.315164 c -1.25672,-0.7233104 -2.98508,-1.7158551 -3.84111,-2.2060671 l -1.55649,-0.8914183 -17.14638,-0.059427 -17.14636,0.030489 -1.5565,0.8914183 c -0.85602,0.4902121 -2.58439,1.4827567 -3.8411,2.2060677 l -2.28514,1.315164 1.98851,3.27887 c 5.92139,9.763876 9.20662,15.321754 10.83862,18.33635 1.00238,1.85157 1.88941,3.36596 1.97093,3.365685 0.22864,-7.94e-4 5.94474,-4.643456 7.12722,-5.788795 1.00314,-0.900938 1.78961,-1.019479 2.90382,-0.984436 1.21177,-0.04143 2.23746,0.380289 2.90384,1.013373 z"
       id="path4793"
       inkscape:connector-curvature="0"
       sodipodi:nodetypes="ccccccccccccccccccc" />
    <path
       id="path7003"
       d="m 270.89726,34.197417 c -1.57703,-1.712062 -4.50066,-5.141898 -6.49692,-7.621856 l -3.62957,-4.509016 1.73701,-2.606045 c 0.95537,-1.433327 2.11777,-3.273083 2.58311,-4.08835 0.46534,-0.815268 2.25883,-3.592158 3.98557,-6.1708696 1.72672,-2.5787118 3.92181,-5.9806006 4.87795,-7.5597529 0.95616,-1.57915235 2.88159,-4.6721882 4.27875,-6.8734104 1.39715,-2.2012221 3.33602,-5.2695921 4.30858,-6.8186011 3.31233,-7.571468 9.82446,-14.702238 9.83074,-14.305056 0.009,0.574547 2.53706,1.895006 1.62217,2.296194 -0.81322,0.356601 -7.48718,9.577788 -8.33168,11.712402 -1.2436,3.1434205 -3.23228,6.6184908 -3.79189,8.0044438 -0.55962,1.3859564 -2.48067,5.50058 -4.26903,9.1436101 l -3.25152,6.6236921 0.18892,10.274579 c 0.10391,5.651019 0.32105,11.341838 0.48256,12.646266 0.16152,1.304428 0.3722,2.972021 0.46818,3.705761 l 0.17452,1.334074 -0.95005,-1.037613 c -0.52253,-0.570687 -2.24036,-2.438391 -3.8174,-4.150452 z"
       style="fill:#b3b3b3;stroke:#0000ff;stroke-width:0.2964609"
       inkscape:connector-curvature="0"
       sodipodi:nodetypes="csccsccccssssccsccccc" />
    <path
       id="path6999"
       d="m 252.601,46.715051 c -3.56048,-2.735456 -7.52191,-5.697036 -8.80318,-6.58129 -1.28126,-0.884253 -2.39524,-1.778851 -2.47549,-1.987995 -0.16128,-0.420296 1.21212,-3.044585 4.58622,-8.76334 2.57587,-4.365852 1.85821,-3.951444 8.64981,-4.99474 l 4.53555,-0.696737 0.72617,0.880436 c 0.39939,0.484239 2.00834,2.476557 3.57548,4.427373 1.56712,1.950817 3.79258,4.555836 4.94547,5.78893 3.23928,3.464635 6.39644,7.097896 6.37987,7.34194 -0.009,0.121253 -0.97545,0.852696 -2.14934,1.625421 -1.1739,0.772728 -3.33504,2.218174 -4.80252,3.212104 -1.46748,0.993929 -3.5353,2.251851 -4.59514,2.79538 -1.05985,0.543528 -2.19382,1.195007 -2.51992,1.447728 -0.32611,0.252721 -0.81487,0.463733 -1.08615,0.468921 -0.27126,0.0052 -3.40633,-2.228674 -6.96683,-4.964131 z"
       style="fill:#b3b3b3;stroke:#0000ff;stroke-width:0.2964609"
       inkscape:connector-curvature="0" />
    <path
       id="path6995"
       d="m 283.03678,44.766313 c -5.19897,-2.462099 -4.88928,-1.995357 -5.63552,-8.49367 -0.44597,-3.883579 -0.67762,-8.167198 -0.79362,-14.674815 l -0.16383,-9.190287 3.39414,-6.9668315 c 1.86677,-3.8317571 3.84118,-8.1007941 4.38757,-9.4867488 0.5464,-1.3859547 2.47268,-5.4470391 4.28062,-9.0246297 3.8821,-5.815653 6.18184,-8.657645 6.78018,-9.022336 3.04298,3.773111 2.03594,3.855241 2.42527,4.754216 l 0.0511,12.0567865 c 0.15269,36.0396045 0.14156,45.2418625 -0.0614,50.9630125 l -0.22331,6.295525 -5.51598,-2.797832 c -3.03377,-1.538807 -7.05015,-3.524383 -8.92527,-4.41239 z"
       style="fill:#b3b3b3;stroke:#0000ff;stroke-width:0.2964609"
       inkscape:connector-curvature="0"
       sodipodi:nodetypes="ccccccccccccccc" />
    <path
       id="path6989"
       d="m 266.1534,63.120299 c -0.19479,-0.234711 -1.39629,-2.440973 -2.66998,-4.902805 l -2.31581,-4.476059 0.92902,-0.69679 c 0.51098,-0.383232 1.63387,-1.049726 2.49533,-1.481094 1.92145,-0.962161 3.70963,-2.102237 7.86082,-5.011814 1.7608,-1.234137 3.46364,-2.327103 3.7841,-2.428813 0.57038,-0.18103 2.42851,1.181 7.75653,5.685602 0.93378,0.789466 3.12768,2.636062 4.87534,4.103543 4.06622,3.414335 9.34564,8.193397 9.20574,8.333285 -0.13445,0.134415 -4.72409,-0.266942 -14.21176,-1.242776 l -7.32673,-0.753574 -2.16002,0.609138 c -1.18802,0.335028 -3.29399,1.066112 -4.67995,1.624633 -2.92506,1.178755 -3.07157,1.205122 -3.54263,0.637524 z"
       style="fill:#b3b3b3;stroke:#0000ff;stroke-width:0.2964609"
       inkscape:connector-curvature="0" />
    <path
       id="path6987"
       d="m 306.1907,67.974911 c -1.12393,-1.570644 -2.26028,-3.274896 -2.52521,-3.787228 -0.26495,-0.512332 -0.8458,-1.159655 -1.29081,-1.438494 -0.445,-0.278839 -2.01061,-1.647522 -3.47911,-3.041514 -2.78663,-2.645222 -6.17217,-5.646169 -8.44727,-7.48765 -0.73374,-0.593895 -1.86771,-1.571913 -2.51992,-2.17337 l -1.18584,-1.093558 1.33407,0.734123 c 3.46235,1.905277 9.70414,4.966002 10.12727,4.966002 1.02288,0 1.24399,-0.868068 1.53484,-6.025533 0.15792,-2.800464 0.28011,-15.964455 0.27152,-29.253314 -0.009,-13.2888601 0.043,-23.7613413 0.11444,-23.2721809 0.90419,6.1845894 1.31661,9.327155 1.73131,13.19251 0.53291,4.9669679 1.07497,9.1334859 1.78916,13.7521539 0.24929,1.612232 0.57985,4.413787 0.73454,6.225679 0.27908,3.268514 1.20931,10.231177 1.74719,13.077557 0.38886,2.057726 1.08367,7.786836 1.81569,14.971276 0.34059,3.342596 0.90062,7.811744 1.24453,9.93144 0.34391,2.119695 0.67783,4.254214 0.74204,4.743374 l 0.11681,0.889383 -0.90585,-1.027468 c -0.49822,-0.565108 -1.82543,-2.312544 -2.94934,-3.883188 z"
       style="fill:#b3b3b3;stroke:#0000ff;stroke-width:0.2964609"
       inkscape:connector-curvature="0" />
    <path
       id="path6979"
       d="m 244.77974,75.109024 c -0.4561,-1.549009 -1.11955,-3.616823 -1.47434,-4.595144 -0.75365,-2.078162 -0.6773,-3.160116 0.38701,-5.484527 0.41063,-0.896794 1.07998,-2.430979 1.48745,-3.4093 0.84503,-2.028845 3.55405,-8.206862 4.91851,-11.216842 l 0.91867,-2.026556 0.70506,0.544252 c 0.3878,0.299337 1.88233,1.411397 3.32121,2.471245 1.43887,1.059847 3.02308,2.345154 3.52047,2.856234 1.04464,1.073379 5.75749,10.250272 5.33622,10.390715 -1.29728,0.432495 -12.53617,6.757529 -12.881,7.249189 -0.42855,0.611021 -1.35664,2.213081 -3.55753,6.141001 l -1.03762,1.851816 -0.40742,-0.977852 c -0.22408,-0.537819 -0.7806,-2.245223 -1.23669,-3.794231 z"
       style="fill:#b3b3b3;stroke:#0000ff;stroke-width:0.2964609"
       inkscape:connector-curvature="0" />
    <path
       id="path6977"
       d="m 300.80528,78.512875 c -2.21175,-0.854154 -4.41297,-1.755484 -4.89161,-2.002952 -0.74004,-0.382636 -5.11454,-2.131009 -10.9499,-4.376395 -0.81527,-0.313709 -3.18906,-1.234561 -5.27508,-2.046342 -3.73192,-1.452276 -6.51836,-2.035408 -13.66545,-2.85983 -2.12263,-0.244845 -2.13182,-0.238714 3.49231,-2.329285 6.58981,-2.449523 7.22294,-2.597801 9.58058,-2.243687 1.1075,0.166344 6.32987,0.691791 11.60523,1.167656 8.86117,0.799321 9.64489,0.91529 10.29164,1.522872 0.61344,1.050959 5.09493,7.699828 9.43004,10.378323 0.56691,1.09943 2.25272,6.227596 2.57825,6.463386 0.10436,0.288773 -5.57815,-0.793705 -5.95158,-0.953071 -0.28719,-0.122497 -4.03267,-1.866521 -6.24443,-2.720675 z"
       style="fill:#b3b3b3;stroke:#0000ff;stroke-width:0.2964609"
       inkscape:connector-curvature="0"
       sodipodi:nodetypes="ccccssssccccc" />
    <path
       id="path6975"
       d="m 247.46147,83.042338 c 0,-0.552197 4.61161,-8.731449 5.43974,-9.648044 0.33647,-0.372415 2.21849,-1.525541 4.18227,-2.562505 l 3.5705,-1.885384 3.11284,0.271356 c 1.71206,0.149245 4.17365,0.435223 5.47017,0.635506 l 2.35734,0.364152 -4.87725,1.733887 c -2.68248,0.953637 -6.01122,2.072591 -7.39718,2.48656 -1.38595,0.413972 -2.8135,0.967796 -3.17234,1.230722 -0.57509,0.421386 -4.64158,6.402188 -6.57372,9.668336 l -0.7015,1.185844 -0.70544,-1.594438 c -0.38798,-0.876943 -0.70543,-1.725636 -0.70543,-1.885992 z"
       style="fill:#b3b3b3;stroke:#0000ff;stroke-width:0.2964609"
       inkscape:connector-curvature="0" />
    <path
       id="path6971"
       d="m 250.26728,89.914963 c -0.22814,-0.369145 2.34183,-5.039014 5.03712,-9.152902 1.59997,-2.442078 2.05221,-2.933157 2.8476,-3.092238 1.43903,-0.287804 13.41304,-0.216754 13.8855,0.08239 0.33378,0.211347 0.14274,0.744223 -0.98163,2.737724 l -1.39608,2.475297 -5.09582,3.378146 -5.09584,3.378142 -2.37168,0.207603 c -3.81037,0.333533 -6.61789,0.327707 -6.82917,-0.01423 z"
       style="fill:#b3b3b3;stroke:#0000ff;stroke-width:0.2964609"
       inkscape:connector-curvature="0" />
    <path
       id="path6963"
       d="m 287.62617,88.159108 c -3.58401,-3.339404 -8.00216,-7.519509 -9.81813,-9.289122 l -3.30173,-3.217481 -4.77325,-0.21875 c -2.62528,-0.120319 -4.83833,-0.283841 -4.91787,-0.36339 -0.17573,-0.175721 5.55427,-2.145689 9.0313,-3.104957 l 2.51992,-0.695209 7.41152,2.839576 c 4.07633,1.561765 8.94571,3.485518 10.82082,4.275002 1.87512,0.789484 5.00219,2.047706 6.94906,2.79605 1.94686,0.748345 3.70733,1.499704 3.91214,1.669689 0.29329,0.243409 0.18118,0.823705 -0.52777,2.731807 -0.49509,1.332512 -1.49387,4.157043 -2.21949,6.276738 -0.72562,2.119702 -1.66983,4.757448 -2.09826,5.86169 l -0.77895,2.007693 -2.84645,-2.748845 c -1.56556,-1.511876 -5.77884,-5.48109 -9.36286,-8.820491 z"
       style="fill:#b3b3b3;stroke:#0000ff;stroke-width:0.2964609"
       inkscape:connector-curvature="0" />
    <path
       id="path6957"
       d="m 256.48759,107.34915 c -1.04812,-2.52568 -1.61971,-4.09611 -4.39709,-12.080782 l -0.97964,-2.816385 4.70768,-0.322386 c 4.04829,-0.277233 4.83081,-0.412188 5.58682,-0.963498 1.39421,-1.01671 2.26656,-1.600089 6.30898,-4.219081 2.08961,-1.353809 3.99533,-2.803541 4.23496,-3.221628 0.40267,-0.702559 0.42742,-0.557987 0.3266,1.907992 -0.10643,2.60237 -0.16577,2.792395 -2.40839,7.707984 -1.26463,2.771915 -2.81016,6.373915 -3.43452,8.004454 -0.62436,1.63053 -1.56664,3.88157 -2.09399,5.00231 -0.84906,1.80455 -1.11478,2.10747 -2.32191,2.64719 -1.27112,0.56833 -2.79586,0.98194 -3.91491,1.062 -0.33289,0.0239 -0.81973,-0.7928 -1.61459,-2.70817 z"
       style="fill:#b3b3b3;stroke:#0000ff;stroke-width:0.2964609"
       inkscape:connector-curvature="0" />
    <path
       id="path6955"
       d="m 318.13102,107.54176 c -6.55164,-3.96146 -7.14508,-4.23134 -11.79737,-5.36496 -2.26917,-0.55293 -4.22691,-1.06783 -4.35052,-1.14422 -0.12362,-0.0763 0.0855,-0.90433 0.46485,-1.839841 0.37928,-0.935497 1.27877,-3.664728 2.17766,-5.999604 1.12923,-2.933167 2.65491,-10.066192 3.72993,-9.623366 1.08899,0.448583 4.98064,0.363266 5.09884,0.304626 0.32709,-7.92e-4 4.22151,13.079318 6.09612,17.919545 1.7175,4.43458 3.66236,8.59393 3.3952,8.59393 -0.0593,0 -2.22587,-1.28075 -4.81471,-2.84611 z"
       style="fill:#b3b3b3;stroke:#0000ff;stroke-width:0.2964609"
       inkscape:connector-curvature="0"
       sodipodi:nodetypes="ccccsscsscc" />
    <path
       id="path6949"
       d="m 290.57933,110.09141 c -1.90449,-1.38595 -4.3886,-3.18695 -5.52025,-4.00222 -2.05744,-1.48223 -2.05752,-1.48238 -1.88328,-2.66815 0.52106,-3.545878 0.50416,-4.484547 -0.12481,-6.929564 -0.35123,-1.365469 -0.96729,-4.261978 -1.36901,-6.436708 -0.40171,-2.174728 -0.81628,-4.177873 -0.92125,-4.451429 -0.15018,-0.391361 -0.0887,-0.440209 0.28841,-0.229167 0.49457,0.276776 9.97927,9.078632 15.12284,14.034079 l 2.91233,2.805799 -0.1823,2.23404 c -0.46167,5.65813 -0.78667,9.1285 -0.93515,9.9856 l -0.16162,0.93298 -1.88162,-1.37767 c -1.0349,-0.75773 -3.43985,-2.51163 -5.34433,-3.89759 z"
       style="fill:#b3b3b3;stroke:#0000ff;stroke-width:0.2964609"
       inkscape:connector-curvature="0" />
    <path
       id="path6945"
       d="m 245.74632,122.17219 c -0.34727,-1.9974 -0.78136,-4.6322 -0.96467,-5.8551 -0.18328,-1.2229 -0.47024,-2.75709 -0.63768,-3.4093 -1.02699,-4.00026 -0.62466,-10.82073 1.27657,-21.641651 0.77301,-4.399571 0.98013,-4.845792 1.43766,-3.097414 0.63014,2.408027 0.95151,3.38264 1.51011,4.579719 0.61892,1.326372 2.13522,5.250284 3.83773,9.931446 0.62267,1.71206 1.61087,4.22526 2.19601,5.58491 0.58512,1.35964 1.06386,2.79294 1.06386,3.18513 0,0.40253 -1.13989,2.42446 -2.61758,4.64299 -1.43969,2.16145 -3.40745,5.22413 -4.3728,6.80594 -0.96537,1.58183 -1.83229,2.88255 -1.92651,2.8905 -0.0943,0.007 -0.45544,-1.61976 -0.8027,-3.61717 z"
       style="fill:#ececec;stroke:#0000ff;stroke-width:0.2964609"
       inkscape:connector-curvature="0" />
    <path
       id="path6941"
       d="m 317.12978,122.98079 c -6.32319,-2.42727 -10.15404,-3.83723 -12.89605,-4.74643 -3.08562,-1.02313 -4.29877,-1.58636 -4.29784,-1.99537 5.9e-4,-0.20162 0.13578,-1.50055 0.30073,-2.88651 0.16494,-1.38595 0.40947,-4.09224 0.54341,-6.01396 0.134,-1.92173 0.37922,-3.62973 0.54506,-3.79557 0.2044,-0.2044 1.43769,-0.015 3.82854,0.58801 3.49537,0.88157 3.53979,0.90366 4.94949,2.4615 3.48849,3.85503 14.17165,16.99044 15.10608,18.57357 l 0.51966,0.88043 -1.70551,-0.53706 c -0.93803,-0.2954 -4.04014,-1.43327 -6.89357,-2.52861 z"
       style="fill:#b3b3b3;stroke:#0000ff;stroke-width:0.2964609"
       inkscape:connector-curvature="0" />
    <path
       style="fill:#ffff00;stroke:#0000ff;stroke-width:0.29646087"
       d="m 234.28727,130.48875 c -0.25588,0.80619 -2.72549,1.87313 -5.15809,2.03244 -2.4326,-0.18825 -4.90221,-1.25519 -5.15809,-2.06138 -0.10807,-0.34055 -0.45945,-0.53433 -0.96739,-0.53433 -0.74886,0 -4.13164,1.23536 -7.19025,2.62619 -0.74643,0.33942 -1.73542,0.91477 -2.1978,1.27848 l -0.84026,0.66146 0.19637,-1.43506 c 0.10819,-0.7893 0.19689,-1.67151 0.19689,-1.9606 0,-0.37781 0.58592,-0.74978 2.08307,-1.32189 3.80956,-1.4557 4.86674,-1.61151 12.29538,-1.81229 0.48191,-0.0132 0.71521,-0.0104 1.58207,-0.007 0.86688,0.0253 1.10018,0.0225 1.58209,0.0357 7.42864,0.20078 8.48582,0.35659 12.29537,1.81229 1.49715,0.5721 2.08308,0.94408 2.08308,1.32189 0,0.28909 0.0887,1.1713 0.19689,1.9606 l 0.19637,1.43506 -0.84026,-0.66146 c -0.46238,-0.36371 -1.45137,-0.93906 -2.1978,-1.27848 -3.05861,-1.39083 -6.44139,-2.62619 -7.19025,-2.62619 -0.50794,0 -0.85932,0.19378 -0.96739,0.53433"
       id="path4831"
       inkscape:connector-curvature="0"
       sodipodi:nodetypes="cccsccccscccccsccccsc" />
    <path
       id="path6931"
       d="m 272.62047,134.47531 c 0.4586,-0.77451 1.67616,-2.60886 2.70568,-4.07634 3.63358,-5.17932 4.26502,-7.09911 6.52081,-19.82544 0.31426,-1.77298 0.61049,-3.26246 0.65826,-3.30995 0.0477,-0.0474 0.848,0.46928 1.77828,1.14838 0.93028,0.6791 2.59787,1.89689 3.70576,2.7062 1.10789,0.80931 3.41512,2.45121 5.12719,3.64868 1.71206,1.19748 3.15526,2.29684 3.20712,2.44304 0.0519,0.14616 -0.72959,0.77221 -1.73653,1.39115 -2.42472,1.49041 -5.87197,3.96952 -8.59722,6.18273 -1.21654,0.98799 -3.74608,2.88606 -5.62119,4.21794 -1.87512,1.33188 -4.54327,3.4199 -5.92922,4.64005 -1.38596,1.22013 -2.5498,2.22368 -2.58634,2.23008 -0.0366,0.006 0.30879,-0.62202 0.7674,-1.39652 z"
       style="fill:#b3b3b3;stroke:#0000ff;stroke-width:0.2964609"
       inkscape:connector-curvature="0" />
    <path
       id="path6927"
       d="m 256.90821,134.10473 c -0.96755,-2.85344 -2.36823,-7.00573 -3.11265,-9.22732 l -1.35349,-4.03923 2.60989,-3.92381 c 1.43545,-2.15809 2.88291,-4.10115 3.21659,-4.31789 0.33367,-0.21675 1.54557,-0.6065 2.69314,-0.86613 2.49598,-0.56468 3.79012,-1.29771 4.58985,-2.59975 0.3264,-0.53141 1.38111,-2.96731 2.34381,-5.41311 0.96268,-2.4458 2.77843,-6.714841 4.03499,-9.48675 l 2.28468,-5.039842 0.27101,-4.729248 c 0.14904,-2.601088 0.31875,-4.776996 0.3771,-4.835351 0.0584,-0.05836 0.85404,0.624121 1.76819,1.516614 1.18779,1.15966 1.66208,1.845736 1.66208,2.404259 0,0.968393 2.22175,12.167473 2.85265,14.379294 0.37459,1.313203 0.40068,1.931591 0.13756,3.261074 -0.31225,1.57791 -2.57072,13.52413 -3.52382,18.63937 -0.45334,2.43293 -0.48504,2.49181 -1.99567,3.70576 -2.35872,1.89544 -7.37113,5.49339 -10.27323,7.3742 -1.43743,0.93157 -2.61349,1.88205 -2.61349,2.11219 0,0.23014 -0.64546,1.93599 -1.43438,3.79077 -0.78891,1.8548 -1.53263,3.63916 -1.65269,3.96527 -0.19381,0.52637 -0.26909,0.47646 -0.67066,-0.44469 -0.24879,-0.57069 -1.24396,-3.37224 -2.21149,-6.22568 z"
       style="fill:#b3b3b3;stroke:#0000ff;stroke-width:0.2964609"
       inkscape:connector-curvature="0" />
    <path
       id="path6925"
       d="m 255.41034,142.10116 c -4.32038,-1.13985 -6.96267,-2.26325 -7.17658,-3.05121 -0.0965,-0.3556 -0.39493,-2.64765 -0.66309,-5.09345 l -0.48756,-4.44691 1.74561,-2.87885 c 0.96007,-1.58335 1.84704,-2.85025 1.97103,-2.81534 0.22789,0.0642 1.81124,4.44325 4.25632,11.77163 0.73444,2.20123 1.59403,4.57277 1.9102,5.27012 0.68499,1.51076 0.72375,1.9655 0.14872,1.74485 -0.23438,-0.09 -1.00147,-0.31532 -1.70465,-0.50084 z"
       style="fill:#b3b3b3;stroke:#0000ff;stroke-width:0.2964609"
       inkscape:connector-curvature="0" />
    <path
       id="path6917"
       d="m 311.34879,142.85836 c -4.40244,-3.96153 -8.48195,-7.71848 -9.06557,-8.34878 -0.58361,-0.63029 -2.18196,-2.14654 -3.55189,-3.36944 -3.11173,-2.77777 -4.42904,-4.13706 -4.42904,-4.57017 0,-0.35107 1.98799,-3.67646 3.75266,-6.27725 l 1.0238,-1.50888 4.94918,1.73951 c 6.18505,2.17391 13.513,4.90253 14.88061,5.54093 l 1.03762,0.48436 0.3336,3.25925 c 0.1835,1.79258 0.39821,7.35645 0.47717,12.36416 l 0.14364,9.10494 -0.77363,-0.60792 c -0.42548,-0.33437 -4.37562,-3.84918 -8.77806,-7.81071 z"
       style="fill:#b3b3b3;stroke:#0000ff;stroke-width:0.2964609"
       inkscape:connector-curvature="0" />
    <path
       id="path6913"
       d="m 258.29569,150.78067 c 0.25632,-0.61145 1.20729,-3.04614 2.11328,-5.41041 0.90597,-2.36428 2.373,-5.96628 3.26007,-8.00444 1.59576,-3.66651 1.63075,-3.71657 3.30113,-4.72509 0.92854,-0.56062 2.82221,-1.83979 4.20817,-2.84261 1.38595,-1.00283 2.703,-1.92953 2.92675,-2.05932 0.22377,-0.12985 -0.5277,1.14937 -1.6699,2.84263 -1.14221,1.69323 -2.96261,4.54611 -4.04533,6.33969 -2.65306,4.39492 -10.01991,14.97128 -10.42809,14.97128 -0.0726,0 0.0775,-0.50028 0.33392,-1.11173 z"
       style="fill:#b3b3b3;stroke:#0000ff;stroke-width:0.2964609"
       inkscape:connector-curvature="0" />
    <path
       id="path6911"
       d="m 231.03648,150.07755 c -0.0614,-2.38372 -0.0228,-4.47753 0.0855,-4.65292 0.12689,-0.20537 2.31985,-0.35107 6.16086,-0.40932 l 5.96378,-0.0904 -0.62065,0.88938 c -0.34135,0.48916 -0.9989,1.36805 -1.4612,1.9531 -0.72671,0.91968 -0.86497,1.40991 -1.02094,3.61996 l -0.18039,2.55624 -1.21675,0.15761 c -0.66922,0.0867 -1.61697,0.20779 -2.10613,0.26914 -0.48917,0.0614 -1.92513,0.0958 -3.19104,0.0765 l -2.30164,-0.0351 z"
       style="fill:#b3b3b3;stroke:#0000ff;stroke-width:0.2964609"
       inkscape:connector-curvature="0" />
    <path
       id="path6905"
       d="m 236.93711,160.79745 c -1.46749,-0.53104 -2.84883,-1.01894 -3.06966,-1.08422 -0.24259,-0.0738 -2.56989,-0.64443 -2.54344,-0.96679 0.0901,-1.09861 -0.33628,-2.42779 0.12596,-2.47842 0.1422,-0.0156 5.83919,0.0648 6.45064,0.0577 1.72702,-0.02 3.67745,-0.47194 3.95967,-0.91738 0.14067,-0.22208 0.25788,-1.48606 0.26037,-2.80882 0.004,-2.24165 0.067,-2.48335 0.92461,-3.55753 0.50605,-0.63388 1.71457,-2.31 2.68561,-3.72472 0.97105,-1.41473 1.95126,-2.72638 2.17826,-2.91476 0.31864,-0.26446 0.90597,-0.1715 2.57657,0.40775 1.19012,0.41266 3.33116,1.09868 4.75788,1.52451 1.7605,0.52544 2.59403,0.91677 2.59403,1.21786 0,0.244 -0.65324,2.02204 -1.45165,3.95121 -0.79842,1.92918 -1.66509,4.24175 -1.92594,5.13906 -0.26086,0.89732 -0.64152,1.70079 -0.84591,1.7855 -0.20441,0.0846 -2.23935,0.91956 -4.5221,1.85525 -2.28275,0.93568 -5.21771,2.14291 -6.52214,2.68274 -1.30443,0.53982 -2.50509,0.9399 -2.66815,0.88905 -0.16305,-0.0508 -1.49712,-0.52691 -2.9646,-1.05796 z"
       style="fill:#b3b3b3;stroke:#0000ff;stroke-width:0.2964609"
       inkscape:connector-curvature="0"
       sodipodi:nodetypes="ccssccccccccscccccccc" />
    <path
       id="path6901"
       d="m 232.93488,165.27163 -1.63053,-0.18677 -0.0882,-1.85288 c -0.0674,-1.41723 0.007,-1.85288 0.31935,-1.85288 0.54461,0 5.78419,1.74162 6.79513,2.25869 1.29963,0.66471 2.24605,0.48393 6.45821,-1.23361 2.19872,-0.89655 3.79961,-1.44604 3.55753,-1.2211 -0.24207,0.22494 -1.70751,1.37852 -3.25652,2.5635 l -2.81637,2.15452 -3.854,-0.22136 c -2.11969,-0.12169 -4.58773,-0.30538 -5.48452,-0.40811 z"
       style="fill:#b3b3b3;stroke:#0000ff;stroke-width:0.2964609"
       inkscape:connector-curvature="0" />
    <path
       id="path6895"
       d="m 308.76122,172.41599 c -2.80101,-3.8281 -7.31382,-9.41055 -16.74433,-20.71306 -1.1073,-1.32711 -2.74702,-3.44999 -3.64382,-4.71751 -0.89679,-1.26752 -1.94643,-2.74195 -2.33252,-3.27653 l -0.70198,-0.97193 0.59412,-0.98093 c 0.32676,-0.5395 1.03115,-1.84806 1.5653,-2.90791 0.53415,-1.05985 1.96145,-3.69835 3.17175,-5.86333 l 2.20057,-3.93633 2.12417,1.86069 c 1.16831,1.02338 4.15374,3.82141 6.63429,6.21784 2.48056,2.39642 5.73393,5.398 7.22971,6.67017 l 2.71958,2.31304 -0.2007,4.05488 c -0.11044,2.23021 -0.33658,4.83192 -0.50265,5.7816 -0.16607,0.94968 -0.4187,5.262 -0.56141,9.58292 -0.14275,4.32092 -0.26827,7.88957 -0.27902,7.93033 -0.0811,0.3073 -0.58927,-0.10939 -1.27306,-1.04394 z"
       style="fill:#b3b3b3;stroke:#0000ff;stroke-width:0.2964609"
       inkscape:connector-curvature="0" />
    <path
       style="fill:#ffff00;stroke:#0000ff;stroke-width:0.29646087"
       d="m 238.8647,167.73555 c -3.50103,-0.1972 -6.54288,-0.2228 -9.73552,-0.14417 -3.19263,-0.10757 -6.23448,-0.082 -9.73551,0.11524 l -4.29845,0.24236 -3.20962,-2.43034 -3.2091,-2.43035 2.24482,2.76263 c 1.23483,1.51939 3.16539,4.02997 4.29017,5.57898 3.23708,4.4579 3.3861,4.56209 6.79546,4.7656 2.62902,0.15057 4.39668,0.40034 7.12223,0.0837 6.9253,0.7748 11.39032,-1.34737 13.9177,-4.8204 1.12479,-1.54901 3.05534,-4.0596 4.29017,-5.57899 l 2.24483,-2.76262 -3.20911,2.43034 -3.20962,2.43035 -4.29845,-0.24237"
       id="path4799"
       inkscape:connector-curvature="0"
       sodipodi:nodetypes="cccccccccccccccc" />
    <path
       id="path6889"
       d="m 263.74231,175.31281 c 0.39981,-6.61908 0.70379,-9.60298 1.51003,-14.82304 0.99259,-6.4266 2.36847,-16.45446 2.36847,-17.2623 0,-1.06573 1.18064,-2.37596 3.67503,-4.07843 1.15827,-0.79054 3.09253,-2.31447 4.29836,-3.3865 1.20581,-1.07205 4.47429,-3.61543 7.26329,-5.65197 2.78899,-2.03652 6.27156,-4.63371 7.73904,-5.7715 1.46748,-1.13779 2.76267,-2.07413 2.87822,-2.08074 0.22166,-0.0133 -1.31733,2.98993 -3.56469,6.95481 -0.73938,1.30443 -2.58797,4.8299 -4.10797,7.83439 l -2.76365,5.46273 -0.45695,3.87579 c -0.72132,6.11805 -1.64256,11.50488 -2.13311,12.47318 -0.74793,1.47627 -4.49517,6.95156 -6.59408,9.63498 -3.65181,4.66874 -7.59786,9.91853 -8.9135,11.85844 -1.03414,1.52483 -1.33201,1.80325 -1.42728,1.33407 -0.0663,-0.32611 0.0368,-3.19437 0.22879,-6.37391 z"
       style="fill:#b3b3b3;stroke:#0000ff;stroke-width:0.2964609"
       inkscape:connector-curvature="0" />
    <path
       id="path6885"
       d="m 239.39149,192.65577 c -4.32311,-6.58853 -8.53183,-13.37949 -8.53183,-13.76647 0,-0.43891 0.87396,-0.61188 3.09154,-0.61188 1.18452,0 3.38602,-0.0875 4.89225,-0.19439 2.53095,-0.17966 2.75902,-0.24815 3.00818,-0.90351 0.33682,-0.88588 2.23298,-3.48457 6.05453,-8.29769 1.63053,-2.05361 4.08465,-5.28222 5.45357,-7.17468 1.36894,-1.89247 3.98422,-5.30855 5.81175,-7.59129 1.82753,-2.28275 3.83773,-4.93206 4.46712,-5.88735 0.62938,-0.95528 1.19379,-1.58855 1.25421,-1.40728 0.0605,0.18127 -0.0944,1.69661 -0.34424,3.36741 -0.24975,1.67081 -0.60226,4.2385 -0.78332,5.70598 -0.18108,1.46748 -0.51727,3.5353 -0.7471,4.59515 -0.22983,1.05984 -0.54233,2.86084 -0.69445,4.00222 -0.24299,1.82342 -0.61915,2.69105 -3.10029,7.15092 -3.21247,5.77443 -5.28208,9.82169 -6.15527,12.03699 -0.33028,0.83792 -1.38387,3.13356 -2.3413,5.10144 -1.99986,4.11039 -4.84718,10.28399 -5.33494,11.56725 l -0.33227,0.87422 -0.88883,-1.31891 c -0.48885,-0.72541 -2.63954,-3.98706 -4.77931,-7.24813 z"
       style="fill:#b3b3b3;stroke:#0000ff;stroke-width:0.2964609"
       inkscape:connector-curvature="0" />
    <path
       id="path6881"
       d="m 289.9164,199.91906 c -0.33393,-1.71206 -0.68786,-3.64646 -0.78651,-4.29868 -0.0986,-0.65221 -0.57226,-3.25366 -1.05243,-5.78099 -0.93593,-4.92609 -3.02972,-17.59732 -3.55155,-21.49341 -0.17472,-1.30443 -0.58124,-3.68683 -0.9034,-5.29423 -0.70174,-3.50138 -0.72249,-4.54128 -0.14527,-7.28519 0.24226,-1.15158 0.58505,-3.66169 0.76177,-5.57801 0.17672,-1.91632 0.43378,-3.59929 0.57124,-3.73993 0.1377,-0.14097 0.96029,0.78131 1.83228,2.05425 0.87029,1.2705 2.55055,3.45337 3.73394,4.85086 1.18338,1.39749 3.5754,4.27519 5.31561,6.39488 1.74021,2.1197 3.91404,4.72114 4.83076,5.78099 3.52814,4.07905 3.49117,3.91108 1.76138,8.00444 -2.52538,5.97597 -9.31835,23.0075 -10.60281,26.58364 -0.59559,1.65824 -1.09976,2.99231 -1.12037,2.96461 -0.0206,-0.0277 -0.31069,-1.45116 -0.64462,-3.16323 z"
       style="fill:#b3b3b3;stroke:#0000ff;stroke-width:0.2964609"
       inkscape:connector-curvature="0" />
    <path
       id="path6877"
       d="m 268.30122,227.11729 c 0.38774,-4.15235 3.30834,-20.4455 4.50337,-25.123 0.22911,-0.89679 0.83211,-3.69835 1.34,-6.22568 0.5079,-2.52733 1.63599,-7.5301 2.50689,-11.11728 0.8709,-3.58718 1.74842,-7.45599 1.95006,-8.59737 0.45357,-2.56762 2.6352,-10.88198 2.94109,-11.20871 0.22476,-0.2401 0.70946,1.90716 1.05787,4.68657 0.42245,3.36993 2.58167,16.62667 3.40422,20.9005 1.61038,8.3671 2.30245,12.66245 2.16015,13.40686 -0.12244,0.64058 -2.28776,3.55074 -5.5756,7.49363 -2.65356,3.18221 -5.9909,7.33772 -7.49989,9.33852 -2.35303,3.11992 -6.59343,8.3009 -6.79392,8.3009 -0.0921,0 -0.0895,-0.83473 0.006,-1.85494 z"
       style="fill:#b3b3b3;stroke:#0000ff;stroke-width:0.2964609"
       inkscape:connector-curvature="0" />
    <path
       id="path6873"
       d="m 248.79868,239.26565 c -0.2453,-1.40672 -0.83957,-4.19815 -1.32058,-6.20321 -0.48101,-2.00503 -1.10696,-4.78926 -1.391,-6.18715 l -0.51642,-2.54163 2.45676,-5.75927 c 1.35121,-3.16762 3.31679,-7.48219 4.36794,-9.58795 1.05116,-2.10576 2.35886,-4.90732 2.90603,-6.22568 4.78888,-11.53861 9.67643,-19.42189 20.37589,-32.8649 1.26817,-1.59336 2.45311,-3.17232 2.63319,-3.50881 0.67242,-1.25643 0.54039,-0.26828 -0.42306,3.16604 -0.54561,1.94495 -1.27317,5.07045 -1.61678,6.94556 -0.34361,1.87512 -1.09869,5.2103 -1.67791,7.41153 -1.31553,4.99933 -6.11924,26.84629 -6.48597,29.49786 -0.58708,4.24463 -1.20349,7.51489 -1.53668,8.15267 -0.21296,0.40763 -1.16429,1.61196 -2.11405,2.6763 -0.94975,1.06433 -2.18992,2.53181 -2.75591,3.26107 -0.566,0.72925 -1.71712,2.05966 -2.55803,2.95646 -1.98658,2.11857 -4.26008,4.76325 -7.30088,8.49286 -1.34902,1.65459 -2.4851,2.97854 -2.52463,2.94214 -0.0396,-0.0365 -0.2726,-1.21717 -0.51791,-2.62389 z"
       style="fill:#b3b3b3;stroke:#0000ff;stroke-width:0.2964609"
       inkscape:connector-curvature="0" />
    <path
       id="path6871"
       d="m 230.85757,244.3882 c -0.26118,-2.66179 -0.35667,-11.75548 -0.33898,-32.27957 0.0133,-15.71558 0.0756,-28.62478 0.13801,-28.68708 0.0623,-0.0623 0.62471,0.72252 1.24979,1.74408 0.62505,1.02156 2.75354,4.32542 4.72996,7.34191 1.9764,3.01649 3.97149,6.08486 4.43351,6.8186 2.14058,3.39949 3.7746,5.3363 4.50204,5.3363 0.42968,0 0.78694,-0.21024 0.88169,-0.51881 0.27679,-0.90145 1.94758,-4.88447 2.95352,-7.04094 0.53241,-1.14138 2.02876,-4.34316 3.32518,-7.11507 1.29644,-2.7719 2.53551,-5.50676 2.7535,-6.07744 0.43142,-1.12942 4.41301,-8.90578 5.54039,-10.82083 l 0.69811,-1.18584 -0.17733,5.3363 c -0.26355,7.93145 -0.45535,8.83053 -2.78239,13.04287 -1.99459,3.61054 -5.10784,10.06439 -5.50651,11.41515 -0.12036,0.40763 -1.1285,2.54562 -2.24044,4.7511 -1.11194,2.20547 -2.51568,5.20714 -3.11944,6.67037 -2.17178,5.26342 -3.68939,8.65455 -5.56887,12.44363 -3.43238,6.9198 -6.06527,12.41595 -6.84592,14.29081 -0.96463,2.31677 -4.04319,8.47746 -4.16843,8.34174 -0.0516,-0.0559 -0.25733,-1.76911 -0.45733,-3.80728 z"
       style="fill:#b3b3b3;stroke:#0000ff;stroke-width:0.2964609"
       inkscape:connector-curvature="0" />
    <path
       style="fill:none;stroke:#ff0000;stroke-width:0.2964609"
       d="m 229.59402,5.3289399 c 0.84501,0.010848 1.42474,0.00537 2.30322,0.019129 l 15.41611,0.2408132 3.7822,2.1585237 c 2.93946,1.6776594 3.89696,2.0953995 4.29844,1.8737871 0.6779,-0.3741764 4.80623,-4.5776277 6.05803,-6.1680989 0.53947,-0.6854349 3.97449,-4.35393839 7.63313,-8.1524838 14.37498,-14.9246922 18.68255,-19.4474262 20.62768,-21.6555252 2.8381,-3.221793 3.07828,-3.192544 5.69164,0.690397 1.106,1.64329 2.1443,3.213016 2.30735,3.488159 0.16305,0.275144 0.64582,0.965109 1.07281,1.53324 1.02199,1.359813 1.53286,3.716641 2.34559,10.8158769 0.16801,1.467483 0.42414,3.0687619 0.56896,3.5579225 0.1449,0.4891603 0.34988,2.1567084 0.45527,3.7057169 0.10535,1.5490086 0.32167,3.28334181 0.48059,3.8540295 0.15893,0.5706851 0.48263,2.9050483 0.71985,5.1877966 0.73853,7.1065556 1.51668,12.9959076 2.50682,18.9735196 0.16204,0.978321 0.43527,3.246414 0.60668,5.040001 0.17142,1.793589 0.69764,5.729229 1.16996,8.74572 0.47232,3.016493 1.20774,8.28576 1.63401,11.709881 0.42628,3.424121 0.96086,7.493336 1.18804,9.042339 0.22716,1.549012 0.4949,3.549965 0.5948,4.446763 0.0999,0.896792 0.36274,2.631122 0.58394,3.854026 0.22121,1.222899 0.68821,3.891182 1.03766,5.929352 0.70134,4.09044 0.63261,3.847682 2.67167,9.48676 0.79595,2.201222 2.46422,6.870457 3.70675,10.376112 2.11192,5.958553 2.86946,7.985533 5.81774,15.563923 1.38782,3.56731 1.45528,4.29895 0.39739,4.29895 -0.41423,0 -1.11418,-0.25369 -1.55598,-0.56379 -2.46437,-1.7297 -6.11024,-3.84982 -7.92355,-4.60747 l -0.96635,-0.40359 1.15497,1.67536 c 0.63526,0.92161 1.78789,2.43097 2.56109,3.3538 3.46809,4.13911 6.51712,7.91495 7.33495,9.08316 0.48916,0.69874 1.45624,2.08031 2.14922,3.0701 2.01446,2.87729 1.64896,4.16733 -0.87901,3.1011 -3.87284,-1.63348 -4.45309,-1.78206 -4.84777,-1.24231 -0.25229,0.34488 -0.29455,0.77696 -0.12764,1.30638 0.13719,0.43515 0.31469,6.36124 0.39429,13.16871 l 0.14469,12.37702 h -0.7984 c -0.58439,0 -1.47018,-0.62043 -3.30832,-2.31768 -1.38068,-1.27484 -3.04095,-2.67564 -3.6897,-3.11248 l -1.17977,-0.79426 -0.28164,0.66662 c -0.50868,1.2026 -1.63926,17.60773 -1.65106,23.95307 -0.007,3.82751 -0.17593,4.43229 -1.2392,4.43229 -0.28974,0 -1.25648,-0.92133 -2.17765,-2.07585 -1.99809,-2.50423 -2.86029,-3.33806 -3.14347,-3.03961 -0.11688,0.12319 -0.76441,1.49112 -1.43919,3.04013 -0.67477,1.54901 -1.33928,3.02484 -1.4764,3.27939 -0.36865,0.6844 -2.84974,7.0572 -3.28249,8.43099 -0.20543,0.65224 -0.68898,1.81527 -1.07435,2.58435 -0.38537,0.76908 -0.70073,1.55626 -0.70073,1.74977 0,0.1935 -0.32124,1.03192 -0.71365,1.86293 -1.25694,2.66177 -3.35393,8.02713 -4.13825,10.58799 -1.01887,3.32671 -1.45053,3.90965 -2.78123,3.75429 -0.9528,-0.11124 -1.13189,0.002 -2.18591,1.37976 -0.63146,0.82564 -2.01815,2.56872 -3.08146,3.87315 -1.06331,1.30443 -2.96372,3.63879 -4.223,5.1878 -1.25928,1.54901 -2.46655,3.00203 -2.68304,3.22873 -0.21649,0.2267 -0.61684,0.75995 -0.88935,1.18547 -2.3706,3.7016 -9.30004,11.59463 -10.17923,11.59463 -0.64705,0 -0.65698,-0.16274 -0.21859,-3.58117 0.20677,-1.61231 0.23035,-2.8865 0.0625,-3.38997 l -0.26872,-0.8072 -1.47019,1.53429 c -0.80866,0.84378 -1.6682,1.86033 -1.90996,2.25877 -0.24175,0.39842 -0.52977,0.72451 -0.63976,0.72451 -0.2502,0 -6.19571,6.85178 -9.09298,10.47893 -3.20538,4.01288 -3.28583,4.094 -3.95635,3.99201 -0.7592,-0.1155 -1.24862,-1.53176 -1.72134,-4.9842 -0.29478,-2.15289 -0.82321,-4.37176 -2.7063,-11.35846 -0.16759,-0.62183 -0.44144,-1.08552 -0.60823,-1.02992 -0.16679,0.0556 -0.6253,0.69803 -1.01906,1.42731 -0.88166,1.63286 -5.16454,10.62767 -5.16454,10.84635 0,0.0872 -1.24919,2.71687 -2.77606,5.84358 -1.52686,3.12672 -3.14715,6.48529 -3.60081,7.46364 -0.45365,0.97832 -0.95501,1.9454 -1.11415,2.14921 -0.19389,0.24831 -0.41762,0.32969 -0.64337,0.34004 l -0.82935,-0.0289 c -0.22575,-0.0104 -0.44948,-0.0917 -0.64337,-0.34005 -0.15914,-0.2038 -0.6605,-1.17088 -1.11415,-2.14921 -0.45366,-0.97835 -2.07395,-4.33691 -3.60081,-7.46363 -1.52687,-3.12671 -2.77606,-5.75639 -2.77606,-5.84359 0,-0.21867 -4.28288,-9.21348 -5.16454,-10.84634 -0.39376,-0.72928 -0.85227,-1.37171 -1.01906,-1.42731 -0.16679,-0.0556 -0.44064,0.40809 -0.60823,1.02992 -1.88309,6.9867 -2.41152,9.20557 -2.7063,11.35846 -0.47272,3.45244 -0.96214,4.8687 -1.72134,4.98419 -0.67052,0.102 -0.75097,0.0209 -3.95635,-3.992 -2.89727,-3.62715 -8.84278,-10.47893 -9.09298,-10.47893 -0.10999,0 -0.39801,-0.32609 -0.63976,-0.72451 -0.24176,-0.39844 -1.1013,-1.41499 -1.90996,-2.25877 l -1.47019,-1.53429 -0.26872,0.8072 c -0.16785,0.50347 -0.14427,1.77766 0.0625,3.38997 0.43839,3.41843 0.42846,3.58117 -0.21859,3.58117 -0.87919,0 -7.80863,-7.89303 -10.17923,-11.59463 -0.27251,-0.42552 -0.67286,-0.95877 -0.88935,-1.18547 -0.21649,-0.2267 -1.42376,-1.67972 -2.68304,-3.22873 -1.25928,-1.54901 -3.15969,-3.88337 -4.223,-5.1878 -1.06331,-1.30443 -2.45,-3.04751 -3.08146,-3.87315 -1.05402,-1.37776 -1.23311,-1.491 -2.18591,-1.37976 -1.3307,0.15536 -1.76236,-0.42758 -2.78123,-3.75429 -0.78432,-2.56086 -2.88131,-7.92622 -4.13825,-10.58799 -0.39241,-0.83101 -0.71365,-1.66943 -0.71365,-1.86293 0,-0.19351 -0.31536,-0.98069 -0.70073,-1.74977 -0.38537,-0.76908 -0.86892,-1.93211 -1.07435,-2.58435 -0.43275,-1.37379 -2.91384,-7.74659 -3.28249,-8.43099 -0.13712,-0.25455 -0.80163,-1.73038 -1.4764,-3.27939 -0.67478,-1.54901 -1.32231,-2.91694 -1.43919,-3.04013 -0.28318,-0.29845 -1.14538,0.53538 -3.14347,3.03961 -0.92117,1.15452 -1.88791,2.07585 -2.17765,2.07585 -1.06327,0 -1.2322,-0.60478 -1.2392,-4.43229 -0.0118,-6.34534 -1.14238,-22.75047 -1.65106,-23.95307 l -0.28164,-0.66662 -1.17977,0.79426 c -0.64875,0.43684 -2.30902,1.83764 -3.6897,3.11248 -1.83814,1.69725 -2.72393,2.31768 -3.30832,2.31768 h -0.7984 l 0.14469,-12.37702 c 0.0796,-6.80747 0.2571,-12.73356 0.39429,-13.16871 0.16691,-0.52942 0.12465,-0.9615 -0.12764,-1.30638 -0.39468,-0.53975 -0.97493,-0.39117 -4.84777,1.24231 -2.52797,1.06623 -2.89347,-0.22381 -0.87901,-3.1011 0.69298,-0.98979 1.66006,-2.37136 2.14922,-3.0701 0.81783,-1.16821 3.86686,-4.94405 7.33495,-9.08316 0.7732,-0.92283 1.92583,-2.43219 2.56109,-3.3538 l 1.15497,-1.67536 -0.96635,0.40359 c -1.81331,0.75765 -5.45918,2.87777 -7.92355,4.60747 -0.4418,0.3101 -1.14175,0.56379 -1.55598,0.56379 -1.05789,0 -0.99043,-0.73164 0.39739,-4.29895 2.94828,-7.57839 3.70582,-9.60537 5.81774,-15.563918 1.24253,-3.505656 2.9108,-8.174893 3.70675,-10.376115 2.03906,-5.639078 1.97033,-5.39632 2.67167,-9.48676 0.34945,-2.03817 0.81645,-4.706453 1.03766,-5.929352 0.2212,-1.222904 0.48404,-2.957232 0.58394,-3.854024 0.0999,-0.8968 0.36764,-2.897751 0.5948,-4.446765 0.22718,-1.549003 0.76176,-5.618218 1.18804,-9.042339 0.42627,-3.424121 1.16169,-8.693388 1.63401,-11.709881 0.47232,-3.016491 0.99854,-6.952131 1.16996,-8.74572 0.17141,-1.793587 0.44464,-4.06168 0.60668,-5.040001 0.99014,-5.977612 1.76829,-11.866964 2.50682,-18.97352 0.23722,-2.2827483 0.56092,-4.6171115 0.71985,-5.1877966 0.15892,-0.57068767 0.37524,-2.3050209 0.48059,-3.8540295 0.10539,-1.5490085 0.31037,-3.2165566 0.45527,-3.7057169 0.14482,-0.4891606 0.40095,-2.0904396 0.56896,-3.5579225 0.81273,-7.0992355 1.3236,-9.4560635 2.34559,-10.8158765 0.42699,-0.568131 0.90976,-1.258096 1.07281,-1.53324 0.16305,-0.275143 1.20135,-1.844869 2.30735,-3.488159 2.61336,-3.882941 2.85354,-3.91219 5.69164,-0.690397 1.94513,2.208099 6.2527,6.730833 20.62768,21.6555248 3.65864,3.79854543 7.09366,7.4670489 7.63313,8.1524838 1.2518,1.5904712 5.38013,5.7939225 6.05803,6.1680989 0.40148,0.2216124 1.35898,-0.1961277 4.29844,-1.8737871 l 3.7822,-2.1585237 15.41611,-0.2408132 c 0.87848,-0.013759 1.45821,-0.00828 2.30322,-0.019129 z"
       id="path4785"
       inkscape:connector-curvature="0"
       sodipodi:nodetypes="ccccccssccccccccccsccsccsssscccccccccsccscccccscccccssccscssscscccccsscscscsccccccscscscsssscccccscssscsccsscccccscccccsccscccccccccssssccsccsccccccccccssccccccc" />
    <path
       id="path7007-0"
       d="m 208.42522,22.73788 c 0,-0.09079 -0.91282,-1.59163 -2.02849,-3.335184 -1.11568,-1.743554 -2.53731,-4.087373 -3.15919,-5.208487 -0.63117,-1.137809 -2.25947,-3.233465 -3.68556,-4.7433739 -1.40515,-1.4877441 -3.0058,-3.238619 -3.557,-3.8908328 -1.18904,-1.4069669 -10.96426,-11.6763382 -15.52074,-16.3053493 -1.83939,-1.868666 -2.93705,-2.818032 -2.57079,-2.223457 0.35156,0.570687 1.36927,2.171576 2.26156,3.5575306 0.8923,1.3859547 2.50063,3.9873992 3.57405,5.7809876 1.07345,1.7935885 3.84297,6.1293288 6.15452,9.6349786 2.31153,3.5056498 4.76003,7.3334352 5.44111,8.5061882 1.02867,1.771303 4.00692,6.445872 4.38683,6.885461 0.11088,0.128294 7.26713,1.417407 8.18489,1.474404 0.28534,0.01773 0.51881,-0.04207 0.51881,-0.132858 z"
       style="fill:#0000ff;stroke:#0000ff;stroke-width:0.2964609"
       inkscape:connector-curvature="0" />
    <path
       id="path7003-2"
       d="m 187.36111,34.16848 c 1.57703,-1.712063 4.50066,-5.141899 6.49692,-7.621857 l 3.62957,-4.509016 -1.73701,-2.606045 c -0.95537,-1.433327 -2.11777,-3.273081 -2.58311,-4.08835 -0.46534,-0.815268 -2.25883,-3.592158 -3.98557,-6.1708694 -1.72672,-2.5787111 -3.92181,-5.9806019 -4.87795,-7.5597517 -0.95616,-1.57915235 -2.88159,-4.6721895 -4.27875,-6.8734117 -1.39715,-2.2012222 -3.33602,-5.2695922 -4.30858,-6.8186002 -3.31233,-7.571469 -9.82446,-14.702239 -9.83074,-14.305057 -0.009,0.574547 -2.53706,1.895006 -1.62217,2.296194 0.81322,0.356601 7.48718,9.577788 8.33168,11.712402 1.2436,3.1434206 3.23228,6.6184909 3.79189,8.0044438 0.55962,1.3859565 2.48067,5.5005798 4.26903,9.1436092 l 3.25152,6.623693 -0.18892,10.274581 c -0.10391,5.651018 -0.32105,11.341838 -0.48256,12.646266 -0.16152,1.304427 -0.3722,2.972019 -0.46818,3.705759 l -0.17452,1.334074 0.95005,-1.037611 c 0.52253,-0.570688 2.24036,-2.438392 3.8174,-4.150453 z"
       style="fill:#00ff00;stroke:#0000ff;stroke-width:0.2964609"
       inkscape:connector-curvature="0"
       sodipodi:nodetypes="csccsccccssssccsccccc" />
    <path
       id="path6999-6"
       d="m 205.65737,46.686114 c 3.56048,-2.735456 7.52191,-5.697035 8.80318,-6.581291 1.28126,-0.884251 2.39524,-1.778849 2.47549,-1.987995 0.16128,-0.420295 -1.21212,-3.044584 -4.58622,-8.763338 -2.57587,-4.365853 -1.85821,-3.951446 -8.64981,-4.994741 l -4.53555,-0.696738 -0.72617,0.880436 c -0.39939,0.48424 -2.00834,2.476558 -3.57548,4.427373 -1.56712,1.950818 -3.79258,4.555837 -4.94547,5.78893 -3.23928,3.464637 -6.39644,7.097898 -6.37987,7.341941 0.009,0.121254 0.97545,0.852697 2.14934,1.625421 1.1739,0.772728 3.33504,2.218174 4.80252,3.212105 1.46748,0.993928 3.5353,2.25185 4.59514,2.795378 1.05985,0.543528 2.19382,1.195009 2.51992,1.447729 0.32611,0.252722 0.81487,0.463732 1.08615,0.468921 0.27126,0.0052 3.40633,-2.228673 6.96683,-4.964131 z"
       style="fill:#ffff00;stroke:#0000ff;stroke-width:0.2964609"
       inkscape:connector-curvature="0" />
    <path
       id="path6995-9"
       d="m 175.22159,44.737376 c 5.19897,-2.462099 4.88928,-1.995356 5.63552,-8.493671 0.44597,-3.883578 0.67762,-8.167198 0.79362,-14.674815 l 0.16383,-9.190286 -3.39414,-6.9668319 c -1.86677,-3.8317567 -3.84118,-8.1007947 -4.38757,-9.4867494 -0.5464,-1.3859548 -2.47268,-5.447039 -4.28062,-9.0246297 -3.8821,-5.815653 -6.18184,-8.657645 -6.78018,-9.022336 -3.04298,3.773112 -2.03594,3.855241 -2.42527,4.754216 l -0.0511,12.0567864 c -0.15269,36.0396046 -0.14156,45.2418636 0.0614,50.9630126 l 0.22331,6.295527 5.51598,-2.797833 c 3.03377,-1.538806 7.05015,-3.524383 8.92527,-4.41239 z"
       style="fill:#ff0000;stroke:#0000ff;stroke-width:0.2964609"
       inkscape:connector-curvature="0"
       sodipodi:nodetypes="ccccccccccccccc" />
    <path
       id="path6989-0"
       d="m 192.10497,63.091363 c 0.19479,-0.234712 1.39629,-2.440975 2.66998,-4.902806 l 2.31581,-4.47606 -0.92902,-0.696788 c -0.51098,-0.383233 -1.63387,-1.049726 -2.49533,-1.481095 -1.92145,-0.96216 -3.70963,-2.102236 -7.86082,-5.011814 -1.7608,-1.234136 -3.46364,-2.327103 -3.7841,-2.428812 -0.57038,-0.18103 -2.42851,1.181 -7.75653,5.685602 -0.93378,0.789464 -3.12768,2.63606 -4.87534,4.103542 -4.06622,3.414334 -9.34564,8.193397 -9.20574,8.333285 0.13445,0.134417 4.72409,-0.266941 14.21176,-1.242777 l 7.32673,-0.753573 2.16002,0.609137 c 1.18802,0.335029 3.29399,1.066112 4.67995,1.624634 2.92506,1.178756 3.07157,1.205122 3.54263,0.637525 z"
       style="fill:#0000ff;stroke:#0000ff;stroke-width:0.2964609"
       inkscape:connector-curvature="0" />
    <path
       id="path6987-5"
       d="m 152.06767,67.945975 c 1.12393,-1.570644 2.26028,-3.274896 2.52521,-3.787228 0.26495,-0.512334 0.8458,-1.159655 1.29081,-1.438494 0.445,-0.278839 2.01061,-1.647524 3.47911,-3.041515 2.78663,-2.645222 6.17217,-5.646169 8.44727,-7.48765 0.73374,-0.593895 1.86771,-1.571914 2.51992,-2.17337 l 1.18584,-1.093557 -1.33407,0.734123 c -3.46235,1.905275 -9.70414,4.966002 -10.12727,4.966002 -1.02288,0 -1.24399,-0.868069 -1.53484,-6.025534 -0.15792,-2.800463 -0.28011,-15.964455 -0.27152,-29.253315 0.009,-13.2888594 -0.043,-23.7613414 -0.11444,-23.2721807 -0.90419,6.1845899 -1.31661,9.3271546 -1.73131,13.1925107 -0.53291,4.966968 -1.07497,9.133486 -1.78916,13.752153 -0.24929,1.612233 -0.57985,4.413787 -0.73454,6.22568 -0.27908,3.268515 -1.20931,10.231176 -1.74719,13.077558 -0.38886,2.057726 -1.08367,7.786836 -1.81569,14.971276 -0.34059,3.342595 -0.90062,7.811744 -1.24453,9.93144 -0.34391,2.119693 -0.67783,4.254214 -0.74204,4.743373 l -0.11681,0.889384 0.90585,-1.027467 c 0.49822,-0.565111 1.82543,-2.312546 2.94934,-3.883189 z"
       style="fill:#ffff00;stroke:#0000ff;stroke-width:0.2964609"
       inkscape:connector-curvature="0" />
    <path
       id="path6979-1"
       d="m 213.47863,75.080089 c 0.4561,-1.549012 1.11955,-3.616826 1.47434,-4.595146 0.75365,-2.078162 0.6773,-3.160115 -0.38701,-5.484527 -0.41063,-0.896795 -1.07998,-2.430978 -1.48745,-3.409299 -0.84503,-2.028846 -3.55405,-8.206862 -4.91851,-11.216844 l -0.91867,-2.026555 -0.70506,0.544251 c -0.3878,0.299339 -1.88233,1.411398 -3.32121,2.471245 -1.43887,1.059847 -3.02308,2.345156 -3.52047,2.856236 -1.04464,1.073377 -5.75749,10.25027 -5.33622,10.390714 1.29728,0.432495 12.53617,6.757529 12.881,7.249189 0.42855,0.61102 1.35664,2.21308 3.55753,6.141003 l 1.03762,1.851816 0.40742,-0.977853 c 0.22408,-0.537821 0.7806,-2.245225 1.23669,-3.79423 z"
       style="fill:#ff0000;stroke:#0000ff;stroke-width:0.2964609"
       inkscape:connector-curvature="0" />
    <path
       id="path6977-5"
       d="m 157.45309,78.483937 c 2.21175,-0.854152 4.41297,-1.755484 4.89161,-2.002951 0.74004,-0.382635 5.11454,-2.13101 10.9499,-4.376394 0.81527,-0.313711 3.18906,-1.234561 5.27508,-2.046343 3.73192,-1.452277 6.51836,-2.035408 13.66545,-2.859831 2.12263,-0.244843 2.13182,-0.238712 -3.49231,-2.329283 -6.58981,-2.449523 -7.22294,-2.597801 -9.58058,-2.243688 -1.1075,0.166344 -6.32987,0.69179 -11.60523,1.167657 -8.86117,0.799319 -9.64489,0.915289 -10.29164,1.522873 -0.61344,1.050956 -5.09493,7.699827 -9.43004,10.378321 -0.56691,1.099431 -2.25272,6.227595 -2.57825,6.463387 -0.10436,0.288771 5.57815,-0.793705 5.95158,-0.953072 0.28719,-0.122497 4.03267,-1.866521 6.24443,-2.720676 z"
       style="fill:#00ff00;stroke:#0000ff;stroke-width:0.2964609"
       inkscape:connector-curvature="0"
       sodipodi:nodetypes="ccccssssccccc" />
    <path
       id="path6975-6"
       d="m 210.7969,83.013403 c 0,-0.552199 -4.61161,-8.731451 -5.43974,-9.648045 -0.33647,-0.372417 -2.21849,-1.525542 -4.18227,-2.562505 l -3.5705,-1.885384 -3.11284,0.271354 c -1.71206,0.149246 -4.17365,0.435224 -5.47017,0.635508 l -2.35734,0.364151 4.87725,1.733886 c 2.68248,0.953638 6.01122,2.072593 7.39718,2.486563 1.38595,0.413969 2.8135,0.967795 3.17234,1.23072 0.57509,0.421386 4.64158,6.402189 6.57372,9.668338 l 0.7015,1.185844 0.70544,-1.594441 c 0.38798,-0.876942 0.70543,-1.725636 0.70543,-1.885989 z"
       style="fill:#ffff00;stroke:#0000ff;stroke-width:0.2964609"
       inkscape:connector-curvature="0" />
    <path
       id="path6971-2"
       d="m 207.99109,89.886026 c 0.22814,-0.369144 -2.34183,-5.039013 -5.03712,-9.1529 -1.59997,-2.442081 -2.05221,-2.933158 -2.8476,-3.092239 -1.43903,-0.287805 -13.41304,-0.216754 -13.8855,0.08239 -0.33378,0.211347 -0.14274,0.744223 0.98163,2.737726 l 1.39608,2.475296 5.09582,3.378144 5.09584,3.378145 2.37168,0.207602 c 3.81037,0.333532 6.61789,0.327705 6.82917,-0.01423 z"
       style="fill:#000000;stroke:#0000ff;stroke-width:0.2964609"
       inkscape:connector-curvature="0" />
    <path
       id="path6963-2"
       d="m 170.6322,88.130172 c 3.58401,-3.339404 8.00216,-7.519509 9.81813,-9.289121 l 3.30173,-3.217482 4.77325,-0.218749 c 2.62528,-0.12032 4.83833,-0.283843 4.91787,-0.363392 0.17573,-0.175721 -5.55427,-2.145689 -9.0313,-3.104957 l -2.51992,-0.695209 -7.41152,2.839577 c -4.07633,1.561764 -8.94571,3.485518 -10.82082,4.275 -1.87512,0.789485 -5.00219,2.047709 -6.94906,2.796051 -1.94686,0.748345 -3.70733,1.499706 -3.91214,1.66969 -0.29329,0.243409 -0.18118,0.823703 0.52777,2.731807 0.49509,1.33251 1.49387,4.157043 2.21949,6.276737 0.72562,2.119704 1.66983,4.757449 2.09826,5.86169 l 0.77895,2.007693 2.84645,-2.748844 c 1.56556,-1.511877 5.77884,-5.48109 9.36286,-8.820491 z"
       style="fill:#0000ff;stroke:#0000ff;stroke-width:0.2964609"
       inkscape:connector-curvature="0" />
    <path
       style="fill:#00ff00;stroke:#0000ff;stroke-width:0.2964609"
       d="m 220.49177,91.421357 c -0.94541,-1.242692 -1.98765,-2.570324 -2.31613,-2.95021 -0.32848,-0.379881 -1.53846,-1.882053 -2.68873,-3.338295 l -2.09135,-2.647903 1.11363,-3.47989 c 0.61253,-1.914101 1.49105,-4.547412 1.95234,-5.85184 1.07764,-3.047272 1.55527,-5.31826 1.36477,-6.49211 -0.15036,-0.92665 -1.82411,-4.823389 -3.89692,-9.072314 -0.59659,-1.222901 -1.6412,-3.490478 -2.32079,-5.039484 -0.67958,-1.549009 -1.5309,-3.416911 -1.89239,-4.150651 l -0.65732,-1.334286 0.94309,-0.813903 c 0.51878,-0.447614 2.12922,-1.648188 3.57911,-2.668056 3.52169,-2.477196 6.1947,-4.521758 10.5606,-8.07961 2.00085,-1.630535 3.80975,-3.091707 4.01991,-3.246829 0.11473,-0.08469 0.25359,-0.324541 0.93419,-0.205781 0.68059,-0.08982 0.88627,0.150026 1.001,0.234718 0.21016,0.155123 2.01906,1.616295 4.01991,3.246829 4.3659,3.557852 7.0389,5.602415 10.5606,8.079611 1.44989,1.019868 3.06033,2.220441 3.5791,2.668055 l 0.9431,0.813904 -0.65732,1.334285 c -0.36149,0.73374 -1.21281,2.601643 -1.89239,4.150651 -0.67959,1.549006 -1.7242,3.816583 -2.32079,5.039485 -2.07281,4.248925 -3.74656,8.145663 -3.89692,9.072313 -0.1905,1.173851 0.28713,3.444838 1.36477,6.492111 0.46129,1.304427 1.33981,3.937738 1.95234,5.851839 l 1.11362,3.47989 -2.09134,2.647903 c -1.15027,1.456243 -2.36025,2.958414 -2.68873,3.338295 -0.32848,0.379886 -1.37072,1.707518 -2.31613,2.95021 -2.06005,2.707794 -7.82082,9.447766 -8.77918,9.815786 -2.34404,-1.09863 -6.60001,-7.374047 -8.49565,-9.844723 z"
       id="path4815"
       inkscape:connector-curvature="0"
       sodipodi:nodetypes="ccccccccccccscccccscccccccccccccc" />
    <path
       id="path6957-4"
       d="m 201.77078,107.32021 c 1.04812,-2.52568 1.61971,-4.09611 4.39709,-12.080779 l 0.97964,-2.816384 -4.70768,-0.322387 c -4.04829,-0.277233 -4.83081,-0.412186 -5.58682,-0.963498 -1.39421,-1.01671 -2.26656,-1.600089 -6.30898,-4.219081 -2.08961,-1.353809 -3.99533,-2.803541 -4.23496,-3.221627 -0.40267,-0.702559 -0.42742,-0.557988 -0.3266,1.907992 0.10643,2.60237 0.16577,2.792394 2.40839,7.707985 1.26463,2.771912 2.81016,6.373913 3.43452,8.004449 0.62436,1.63053 1.56664,3.88157 2.09399,5.00231 0.84906,1.80455 1.11478,2.10747 2.32191,2.64719 1.27112,0.56833 2.79586,0.98194 3.91491,1.062 0.33289,0.0239 0.81973,-0.7928 1.61459,-2.70817 z"
       style="fill:#ffff00;stroke:#0000ff;stroke-width:0.2964609"
       inkscape:connector-curvature="0" />
    <path
       id="path6955-7"
       d="m 140.12735,107.51282 c 6.55164,-3.96146 7.14508,-4.23134 11.79737,-5.36496 2.26917,-0.55293 4.22691,-1.06783 4.35052,-1.14422 0.12362,-0.0763 -0.0855,-0.90433 -0.46485,-1.839838 -0.37928,-0.935498 -1.27877,-3.664728 -2.17766,-5.999604 -1.12923,-2.933166 -2.65491,-10.066192 -3.72993,-9.623364 -1.08899,0.448582 -4.98064,0.363265 -5.09884,0.304625 -0.32709,-7.94e-4 -4.22151,13.079317 -6.09612,17.919541 -1.7175,4.43458 -3.66236,8.59393 -3.3952,8.59393 0.0593,0 2.22587,-1.28075 4.81471,-2.84611 z"
       style="fill:#ff0000;stroke:#0000ff;stroke-width:0.2964609"
       inkscape:connector-curvature="0"
       sodipodi:nodetypes="ccccsscsscc" />
    <path
       id="path6949-9"
       d="m 167.67904,110.06247 c 1.90449,-1.38595 4.3886,-3.18695 5.52025,-4.00222 2.05744,-1.48223 2.05752,-1.48238 1.88328,-2.66815 -0.52106,-3.545874 -0.50416,-4.484544 0.12481,-6.929561 0.35123,-1.365467 0.96729,-4.261977 1.36901,-6.436707 0.40171,-2.174729 0.81628,-4.177874 0.92125,-4.451429 0.15018,-0.391361 0.0887,-0.440209 -0.28841,-0.229166 -0.49457,0.276775 -9.97927,9.078632 -15.12284,14.034076 l -2.91233,2.805797 0.1823,2.23404 c 0.46167,5.65813 0.78667,9.1285 0.93515,9.9856 l 0.16162,0.93298 1.88162,-1.37767 c 1.0349,-0.75773 3.43985,-2.51163 5.34433,-3.89759 z"
       style="fill:#00ff00;stroke:#0000ff;stroke-width:0.2964609"
       inkscape:connector-curvature="0" />
    <path
       id="path6945-7"
       d="m 212.51205,122.14325 c 0.34727,-1.9974 0.78136,-4.6322 0.96467,-5.8551 0.18328,-1.2229 0.47024,-2.75709 0.63768,-3.4093 1.02699,-4.00026 0.62466,-10.82073 -1.27657,-21.641647 -0.77301,-4.399571 -0.98013,-4.845793 -1.43766,-3.097413 -0.63014,2.408025 -0.95151,3.382639 -1.51011,4.579717 -0.61892,1.326373 -2.13522,5.250284 -3.83773,9.931443 -0.62267,1.71206 -1.61087,4.22526 -2.19601,5.58491 -0.58512,1.35964 -1.06386,2.79294 -1.06386,3.18513 0,0.40253 1.13989,2.42446 2.61758,4.64299 1.43969,2.16145 3.40745,5.22413 4.3728,6.80594 0.96537,1.58183 1.83229,2.88255 1.92651,2.8905 0.0943,0.007 0.45544,-1.61976 0.8027,-3.61717 z"
       style="fill:#0000ff;stroke:#0000ff;stroke-width:0.2964609"
       inkscape:connector-curvature="0" />
    <path
       id="path6941-4"
       d="m 141.12859,122.95185 c 6.32319,-2.42727 10.15404,-3.83723 12.89605,-4.74643 3.08562,-1.02313 4.29877,-1.58636 4.29784,-1.99537 -5.3e-4,-0.20162 -0.13578,-1.50055 -0.30073,-2.88651 -0.16494,-1.38595 -0.40947,-4.09224 -0.54341,-6.01396 -0.134,-1.92173 -0.37922,-3.62973 -0.54506,-3.79557 -0.2044,-0.2044 -1.43769,-0.015 -3.82854,0.58801 -3.49537,0.88157 -3.53979,0.90366 -4.94949,2.4615 -3.48849,3.85503 -14.17165,16.99044 -15.10608,18.57357 l -0.51966,0.88043 1.70551,-0.53706 c 0.93803,-0.2954 4.04014,-1.43327 6.89357,-2.52861 z"
       style="fill:#ffff00;stroke:#0000ff;stroke-width:0.2964609"
       inkscape:connector-curvature="0" />
    <path
       style="fill:#ff0000;stroke:#0000ff;stroke-width:0.2964609"
       d="m 227.8806,125.91123 c -8.11055,0.17713 -9.5048,0.33159 -12.2778,1.35858 -0.86214,0.31929 -1.64569,0.58032 -1.74149,0.58032 -0.0957,0 -0.0872,-0.43383 0.0191,-0.96376 0.10636,-0.52992 0.53166,-3.03099 0.94516,-5.55832 0.41351,-2.52733 1.00283,-5.86242 1.30949,-7.41143 1.04384,-5.27262 1.03834,-5.60542 -0.28939,-17.949291 -0.15864,-1.47482 -0.4922,-3.651454 -0.74156,-4.836914 -0.24937,-1.185463 -0.45207,-2.379933 -0.44907,-2.65462 0.005,-0.590828 1.26505,0.780579 3.76205,4.095358 0.92121,1.222901 2.75833,3.490994 4.08244,5.040003 1.3241,1.549006 3.11276,3.716664 3.97495,4.817274 1.14928,1.46711 1.62369,1.88819 2.6547,1.98076 1.03103,-0.0636 1.50543,-0.48471 2.65472,-1.95182 0.86219,-1.10061 2.65085,-3.268272 3.97495,-4.817278 1.3241,-1.549009 3.16123,-3.817102 4.08244,-5.040003 2.497,-3.314779 3.75683,-4.686186 3.76204,-4.095358 0.003,0.274687 -0.19969,1.469157 -0.44907,2.65462 -0.24936,1.18546 -0.58291,3.362094 -0.74155,4.836914 -1.32773,12.343875 -1.33323,12.676675 -0.28939,17.949295 0.30666,1.54901 0.89597,4.8841 1.30948,7.41143 0.41351,2.52733 0.8388,5.0284 0.94516,5.55832 0.10628,0.52993 0.11484,0.96376 0.0191,0.96376 -0.0958,0 -0.87935,-0.26104 -1.74149,-0.58032 -2.773,-1.027 -4.16726,-1.18145 -12.27781,-1.35858 l -1.24857,-0.0321 z"
       id="path4823"
       inkscape:connector-curvature="0"
       sodipodi:nodetypes="ccscccccccccccscccccscscccc" />
    <path
       id="path6931-7"
       d="m 185.6379,134.44637 c -0.4586,-0.77451 -1.67616,-2.60886 -2.70568,-4.07634 -3.63358,-5.17932 -4.26502,-7.09911 -6.52081,-19.82544 -0.31426,-1.77298 -0.61049,-3.26246 -0.65826,-3.30995 -0.0477,-0.0474 -0.848,0.46928 -1.77828,1.14838 -0.93028,0.6791 -2.59787,1.89689 -3.70576,2.7062 -1.10789,0.80931 -3.41512,2.45121 -5.12719,3.64868 -1.71206,1.19748 -3.15526,2.29684 -3.20712,2.44304 -0.0519,0.14616 0.72959,0.77221 1.73653,1.39115 2.42472,1.49041 5.87197,3.96952 8.59722,6.18273 1.21654,0.98799 3.74608,2.88606 5.62119,4.21794 1.87512,1.33188 4.54327,3.4199 5.92922,4.64005 1.38596,1.22013 2.5498,2.22368 2.58634,2.23008 0.0366,0.006 -0.30879,-0.62202 -0.7674,-1.39652 z"
       style="fill:#0000ff;stroke:#0000ff;stroke-width:0.2964609"
       inkscape:connector-curvature="0" />
    <path
       id="path6927-0"
       d="m 201.35016,134.07579 c 0.96755,-2.85344 2.36823,-7.00573 3.11265,-9.22732 l 1.35349,-4.03923 -2.60989,-3.92381 c -1.43545,-2.15809 -2.88291,-4.10115 -3.21659,-4.31789 -0.33367,-0.21675 -1.54557,-0.6065 -2.69314,-0.86613 -2.49598,-0.56468 -3.79012,-1.29771 -4.58985,-2.59975 -0.3264,-0.53141 -1.38111,-2.96731 -2.34381,-5.41311 -0.96268,-2.4458 -2.77843,-6.714836 -4.03499,-9.486746 l -2.28468,-5.039842 -0.27101,-4.72925 c -0.14904,-2.601087 -0.31875,-4.776993 -0.3771,-4.83535 -0.0584,-0.05836 -0.85404,0.62412 -1.76819,1.516616 -1.18779,1.159658 -1.66208,1.845736 -1.66208,2.404258 0,0.968393 -2.22175,12.167473 -2.85265,14.379294 -0.37459,1.313201 -0.40068,1.931591 -0.13756,3.26107 0.31225,1.57791 2.57072,13.52413 3.52382,18.63937 0.45334,2.43293 0.48504,2.49181 1.99567,3.70576 2.35872,1.89544 7.37113,5.49339 10.27323,7.3742 1.43743,0.93157 2.61349,1.88205 2.61349,2.11219 0,0.23014 0.64546,1.93599 1.43438,3.79077 0.78891,1.8548 1.53263,3.63916 1.65269,3.96527 0.19381,0.52637 0.26909,0.47646 0.67066,-0.44469 0.24879,-0.57069 1.24396,-3.37224 2.21149,-6.22568 z"
       style="fill:#ff0000;stroke:#0000ff;stroke-width:0.2964609"
       inkscape:connector-curvature="0" />
    <path
       id="path6925-8"
       d="m 202.84803,142.07222 c 4.32038,-1.13985 6.96267,-2.26325 7.17658,-3.05121 0.0965,-0.3556 0.39493,-2.64765 0.66309,-5.09345 l 0.48756,-4.44691 -1.74561,-2.87885 c -0.96007,-1.58335 -1.84704,-2.85025 -1.97103,-2.81534 -0.22789,0.0642 -1.81124,4.44325 -4.25632,11.77163 -0.73444,2.20123 -1.59403,4.57277 -1.9102,5.27012 -0.68499,1.51076 -0.72375,1.9655 -0.14872,1.74485 0.23438,-0.09 1.00147,-0.31532 1.70465,-0.50084 z"
       style="fill:#00ff00;stroke:#0000ff;stroke-width:0.2964609"
       inkscape:connector-curvature="0" />
    <path
       style="fill:#0000ff;stroke:#0000ff;stroke-width:0.2964609"
       d="m 226.45887,142.90761 -10.27792,-0.12092 -1.54255,-1.31672 c -0.84828,-0.72423 -1.72596,-1.42346 -1.95078,-1.55391 -0.43058,-0.24973 -0.53864,-1.3026 -0.21911,-2.13527 0.30774,-0.80195 4.93922,-3.64341 7.44451,-4.56716 2.27611,-0.83922 2.33051,-0.84468 3.06441,-0.31006 1.32628,0.96612 3.75638,1.71917 6.15175,1.84537 2.39539,-0.0973 4.82549,-0.85031 6.15176,-1.81643 0.7339,-0.53462 0.7883,-0.52916 3.06441,0.31006 2.5053,0.92375 7.13677,3.76521 7.44451,4.56716 0.31953,0.83267 0.21147,1.88554 -0.21911,2.13527 -0.22482,0.13045 -1.1025,0.82967 -1.95078,1.55391 l -1.54254,1.31672 -10.27793,0.12092 c -1.21852,0.0143 -1.14243,0.0263 -2.67009,0.0274 -1.11107,-0.0299 -2.06778,-0.049 -2.67054,-0.0563 z"
       id="path4807"
       inkscape:connector-curvature="0"
       sodipodi:nodetypes="ccccccccccccccccc" />
    <path
       id="path6917-7"
       d="m 146.90958,142.82942 c 4.40244,-3.96153 8.48195,-7.71848 9.06557,-8.34878 0.58361,-0.63029 2.18196,-2.14654 3.55189,-3.36944 3.11173,-2.77777 4.42904,-4.13706 4.42904,-4.57017 0,-0.35107 -1.98799,-3.67646 -3.75266,-6.27725 l -1.0238,-1.50888 -4.94918,1.73951 c -6.18505,2.17391 -13.513,4.90253 -14.88061,5.54093 l -1.03762,0.48436 -0.3336,3.25925 c -0.1835,1.79258 -0.39821,7.35645 -0.47717,12.36416 l -0.14364,9.10494 0.77363,-0.60792 c 0.42548,-0.33437 4.37562,-3.84918 8.77806,-7.81071 z"
       style="fill:#ff0000;stroke:#0000ff;stroke-width:0.2964609"
       inkscape:connector-curvature="0" />
    <path
       id="path6913-1"
       d="m 199.96268,150.75173 c -0.25632,-0.61145 -1.20729,-3.04614 -2.11328,-5.41041 -0.90597,-2.36428 -2.373,-5.96628 -3.26007,-8.00444 -1.59576,-3.66651 -1.63075,-3.71657 -3.30113,-4.72509 -0.92854,-0.56062 -2.82221,-1.83979 -4.20817,-2.84261 -1.38595,-1.00283 -2.703,-1.92953 -2.92675,-2.05932 -0.22377,-0.12985 0.5277,1.14937 1.6699,2.84263 1.14221,1.69323 2.96261,4.54611 4.04533,6.33969 2.65306,4.39492 10.01991,14.97128 10.42809,14.97128 0.0726,0 -0.0775,-0.50028 -0.33392,-1.11173 z"
       style="fill:#ffff00;stroke:#0000ff;stroke-width:0.2964609"
       inkscape:connector-curvature="0" />
    <path
       id="path6911-6"
       d="m 227.22189,150.04861 c 0.0614,-2.38372 0.0228,-4.47753 -0.0855,-4.65292 -0.12689,-0.20537 -2.31985,-0.35107 -6.16086,-0.40932 l -5.96378,-0.0904 0.62065,0.88938 c 0.34135,0.48916 0.9989,1.36805 1.4612,1.9531 0.72671,0.91968 0.86497,1.40991 1.02094,3.61996 l 0.18039,2.55624 1.21675,0.15761 c 0.66922,0.0867 1.61697,0.20779 2.10613,0.26914 0.48917,0.0614 1.92513,0.0958 3.19104,0.0765 l 2.30164,-0.0351 z"
       style="fill:#ffff00;stroke:#0000ff;stroke-width:0.2964609"
       inkscape:connector-curvature="0" />
    <path
       id="path6905-0"
       d="m 221.32126,160.76851 c 1.46749,-0.53104 2.84883,-1.01894 3.06966,-1.08422 0.24259,-0.0738 2.56989,-0.64443 2.54344,-0.96679 -0.0901,-1.09861 0.33628,-2.42779 -0.12596,-2.47842 -0.1422,-0.0156 -5.83919,0.0648 -6.45064,0.0577 -1.72702,-0.02 -3.67745,-0.47194 -3.95967,-0.91738 -0.14067,-0.22208 -0.25788,-1.48606 -0.26037,-2.80882 -0.004,-2.24165 -0.067,-2.48335 -0.92461,-3.55753 -0.50605,-0.63388 -1.71457,-2.31 -2.68561,-3.72472 -0.97105,-1.41473 -1.95126,-2.72638 -2.17826,-2.91476 -0.31864,-0.26446 -0.90597,-0.1715 -2.57657,0.40775 -1.19012,0.41266 -3.33116,1.09868 -4.75788,1.52451 -1.7605,0.52544 -2.59403,0.91677 -2.59403,1.21786 0,0.244 0.65324,2.02204 1.45165,3.95121 0.79842,1.92918 1.66509,4.24175 1.92594,5.13906 0.26086,0.89732 0.64152,1.70079 0.84591,1.7855 0.20441,0.0846 2.23935,0.91956 4.5221,1.85525 2.28275,0.93568 5.21771,2.14291 6.52214,2.68274 1.30443,0.53982 2.50509,0.9399 2.66815,0.88905 0.16305,-0.0508 1.49712,-0.52691 2.9646,-1.05796 z"
       style="fill:#ff0000;stroke:#0000ff;stroke-width:0.2964609"
       inkscape:connector-curvature="0"
       sodipodi:nodetypes="ccssccccccccscccccccc" />
    <path
       id="path6901-2"
       d="m 225.32349,165.24269 1.63053,-0.18677 0.0882,-1.85288 c 0.0674,-1.41723 -0.007,-1.85288 -0.31935,-1.85288 -0.54461,0 -5.78419,1.74162 -6.79513,2.25869 -1.29963,0.66471 -2.24605,0.48393 -6.45821,-1.23361 -2.19872,-0.89655 -3.79961,-1.44604 -3.55753,-1.2211 0.24207,0.22494 1.70751,1.37852 3.25652,2.5635 l 2.81637,2.15452 3.854,-0.22136 c 2.11969,-0.12169 4.58773,-0.30538 5.48452,-0.40811 z"
       style="fill:#00ff00;stroke:#0000ff;stroke-width:0.2964609"
       inkscape:connector-curvature="0" />
    <path
       id="path6895-1"
       d="m 149.49715,172.38705 c 2.80101,-3.8281 7.31382,-9.41055 16.74433,-20.71306 1.1073,-1.32711 2.74702,-3.44999 3.64382,-4.71751 0.89679,-1.26752 1.94643,-2.74195 2.33252,-3.27653 l 0.70198,-0.97193 -0.59412,-0.98093 c -0.32676,-0.5395 -1.03115,-1.84806 -1.5653,-2.90791 -0.53415,-1.05985 -1.96145,-3.69835 -3.17175,-5.86333 l -2.20057,-3.93633 -2.12417,1.86069 c -1.16831,1.02338 -4.15374,3.82141 -6.63429,6.21784 -2.48056,2.39642 -5.73393,5.398 -7.22971,6.67017 l -2.71958,2.31304 0.2007,4.05488 c 0.11044,2.23021 0.33658,4.83192 0.50265,5.7816 0.16607,0.94968 0.4187,5.262 0.56141,9.58292 0.14275,4.32092 0.26827,7.88957 0.27902,7.93033 0.0811,0.3073 0.58927,-0.10939 1.27306,-1.04394 z"
       style="fill:#ffff00;stroke:#0000ff;stroke-width:0.2964609"
       inkscape:connector-curvature="0" />
    <path
       id="path6889-3"
       d="m 194.51606,175.28387 c -0.39981,-6.61908 -0.70379,-9.60298 -1.51003,-14.82304 -0.99259,-6.4266 -2.36847,-16.45446 -2.36847,-17.2623 0,-1.06573 -1.18064,-2.37596 -3.67503,-4.07843 -1.15827,-0.79054 -3.09253,-2.31447 -4.29836,-3.3865 -1.20581,-1.07205 -4.47429,-3.61543 -7.26329,-5.65197 -2.78899,-2.03652 -6.27156,-4.63371 -7.73904,-5.7715 -1.46748,-1.13779 -2.76267,-2.07413 -2.87822,-2.08074 -0.22166,-0.0133 1.31733,2.98993 3.56469,6.95481 0.73938,1.30443 2.58797,4.8299 4.10797,7.83439 l 2.76365,5.46273 0.45695,3.87579 c 0.72132,6.11805 1.64256,11.50488 2.13311,12.47318 0.74793,1.47627 4.49517,6.95156 6.59408,9.63498 3.65181,4.66874 7.59786,9.91853 8.9135,11.85844 1.03414,1.52483 1.33201,1.80325 1.42728,1.33407 0.0663,-0.32611 -0.0368,-3.19437 -0.22879,-6.37391 z"
       style="fill:#00ff00;stroke:#0000ff;stroke-width:0.2964609"
       inkscape:connector-curvature="0" />
    <path
       id="path6885-5"
       d="m 218.86688,192.62683 c 4.32311,-6.58853 8.53183,-13.37949 8.53183,-13.76647 0,-0.43891 -0.87396,-0.61188 -3.09154,-0.61188 -1.18452,0 -3.38602,-0.0875 -4.89225,-0.19439 -2.53095,-0.17966 -2.75902,-0.24815 -3.00818,-0.90351 -0.33682,-0.88588 -2.23298,-3.48457 -6.05453,-8.29769 -1.63053,-2.05361 -4.08465,-5.28222 -5.45357,-7.17468 -1.36894,-1.89247 -3.98422,-5.30855 -5.81175,-7.59129 -1.82753,-2.28275 -3.83773,-4.93206 -4.46712,-5.88735 -0.62938,-0.95528 -1.19379,-1.58855 -1.25421,-1.40728 -0.0605,0.18127 0.0944,1.69661 0.34424,3.36741 0.24975,1.67081 0.60226,4.2385 0.78332,5.70598 0.18108,1.46748 0.51727,3.5353 0.7471,4.59515 0.22983,1.05984 0.54233,2.86084 0.69445,4.00222 0.24299,1.82342 0.61915,2.69105 3.10029,7.15092 3.21247,5.77443 5.28208,9.82169 6.15527,12.03699 0.33028,0.83792 1.38387,3.13356 2.3413,5.10144 1.99986,4.11039 4.84718,10.28399 5.33494,11.56725 l 0.33227,0.87422 0.88883,-1.31891 c 0.48885,-0.72541 2.63954,-3.98706 4.77931,-7.24813 z"
       style="fill:#0000ff;stroke:#0000ff;stroke-width:0.2964609"
       inkscape:connector-curvature="0" />
    <path
       id="path6881-1"
       d="m 168.34197,199.89012 c 0.33393,-1.71206 0.68786,-3.64646 0.78651,-4.29868 0.0986,-0.65221 0.57226,-3.25366 1.05243,-5.78099 0.93593,-4.92609 3.02972,-17.59732 3.55155,-21.49341 0.17472,-1.30443 0.58124,-3.68683 0.9034,-5.29423 0.70174,-3.50138 0.72249,-4.54128 0.14527,-7.28519 -0.24226,-1.15158 -0.58505,-3.66169 -0.76177,-5.57801 -0.17672,-1.91632 -0.43378,-3.59929 -0.57124,-3.73993 -0.1377,-0.14097 -0.96029,0.78131 -1.83228,2.05425 -0.87029,1.2705 -2.55055,3.45337 -3.73394,4.85086 -1.18338,1.39749 -3.5754,4.27519 -5.31561,6.39488 -1.74021,2.1197 -3.91404,4.72114 -4.83076,5.78099 -3.52814,4.07905 -3.49117,3.91108 -1.76138,8.00444 2.52538,5.97597 9.31835,23.0075 10.60281,26.58364 0.59559,1.65824 1.09976,2.99231 1.12037,2.96461 0.0206,-0.0277 0.31069,-1.45116 0.64462,-3.16323 z"
       style="fill:#ff0000;stroke:#0000ff;stroke-width:0.2964609"
       inkscape:connector-curvature="0" />
    <path
       id="path6877-7"
       d="m 189.95715,227.08835 c -0.38774,-4.15235 -3.30834,-20.4455 -4.50337,-25.123 -0.22911,-0.89679 -0.83211,-3.69835 -1.34,-6.22568 -0.5079,-2.52733 -1.63599,-7.5301 -2.50689,-11.11728 -0.8709,-3.58718 -1.74842,-7.45599 -1.95006,-8.59737 -0.45357,-2.56762 -2.6352,-10.88198 -2.94109,-11.20871 -0.22476,-0.2401 -0.70946,1.90716 -1.05787,4.68657 -0.42245,3.36993 -2.58167,16.62667 -3.40422,20.9005 -1.61038,8.3671 -2.30245,12.66245 -2.16015,13.40686 0.12244,0.64058 2.28776,3.55074 5.5756,7.49363 2.65356,3.18221 5.9909,7.33772 7.49989,9.33852 2.35303,3.11992 6.59343,8.3009 6.79392,8.3009 0.0921,0 0.0895,-0.83473 -0.006,-1.85494 z"
       style="fill:#ffff00;stroke:#0000ff;stroke-width:0.2964609"
       inkscape:connector-curvature="0" />
    <path
       id="path6873-1"
       d="m 209.45969,239.23672 c 0.2453,-1.40673 0.83957,-4.19816 1.32058,-6.20322 0.48101,-2.00503 1.10696,-4.78926 1.391,-6.18715 l 0.51642,-2.54163 -2.45676,-5.75927 c -1.35121,-3.16762 -3.31679,-7.48219 -4.36794,-9.58795 -1.05116,-2.10576 -2.35886,-4.90732 -2.90603,-6.22568 -4.78888,-11.53861 -9.67643,-19.42189 -20.37589,-32.8649 -1.26817,-1.59336 -2.45311,-3.17232 -2.63319,-3.50881 -0.67242,-1.25643 -0.54039,-0.26828 0.42306,3.16604 0.54561,1.94495 1.27317,5.07045 1.61678,6.94556 0.34361,1.87512 1.09869,5.2103 1.67791,7.41153 1.31553,4.99933 6.11924,26.84629 6.48597,29.49786 0.58708,4.24463 1.20349,7.51489 1.53668,8.15267 0.21296,0.40763 1.16429,1.61196 2.11405,2.6763 0.94975,1.06433 2.18992,2.53181 2.75591,3.26107 0.566,0.72925 1.71712,2.05966 2.55803,2.95646 1.98658,2.11857 4.26008,4.76325 7.30088,8.49286 1.34902,1.65459 2.4851,2.97854 2.52463,2.94214 0.0396,-0.0365 0.2726,-1.21717 0.51791,-2.62388 z"
       style="fill:#ff0000;stroke:#0000ff;stroke-width:0.2964609"
       inkscape:connector-curvature="0" />
    <path
       id="path6871-8"
       d="m 227.4008,244.35927 c 0.26118,-2.66179 0.35667,-11.75549 0.33898,-32.27958 -0.0133,-15.71558 -0.0756,-28.62478 -0.13801,-28.68708 -0.0623,-0.0623 -0.62471,0.72252 -1.24979,1.74408 -0.62505,1.02156 -2.75354,4.32542 -4.72996,7.34191 -1.9764,3.01649 -3.97149,6.08486 -4.43351,6.8186 -2.14058,3.39949 -3.7746,5.3363 -4.50204,5.3363 -0.42968,0 -0.78694,-0.21024 -0.88169,-0.51881 -0.27679,-0.90145 -1.94758,-4.88447 -2.95352,-7.04094 -0.53241,-1.14138 -2.02876,-4.34316 -3.32518,-7.11507 -1.29644,-2.7719 -2.53551,-5.50676 -2.7535,-6.07744 -0.43142,-1.12942 -4.41301,-8.90578 -5.54039,-10.82083 l -0.69811,-1.18584 0.17733,5.3363 c 0.26355,7.93145 0.45535,8.83053 2.78239,13.04287 1.99459,3.61054 5.10784,10.06439 5.50651,11.41515 0.12036,0.40763 1.1285,2.54562 2.24044,4.7511 1.11194,2.20547 2.51568,5.20714 3.11944,6.67037 2.17178,5.26342 3.68939,8.65455 5.56887,12.44363 3.43238,6.9198 6.06527,12.41596 6.84592,14.29082 0.96463,2.31677 4.04319,8.47746 4.16843,8.34173 0.0516,-0.0559 0.25733,-1.76911 0.45733,-3.80727 z"
       style="fill:#ffff00;stroke:#0000ff;stroke-width:0.2964609"
       inkscape:connector-curvature="0" />
  </g>
</svg>
